<svg width="50" height="50" viewBox="0 0 50 50" fill="none" xmlns="http://www.w3.org/2000/svg">
<rect width="50" height="50" rx="10" fill="#709AF3"/>
<path fill-rule="evenodd" clip-rule="evenodd" d="M23.3462 21.5368C24.3078 20.8211 25.6922 20.8211 26.6538 21.5368L36.0451 28.5262C36.6681 28.9898 37.0202 29.6887 36.9991 30.4198C36.978 31.1508 36.5862 31.832 35.9374 32.2655L26.5461 38.5392C25.6264 39.1536 24.3736 39.1536 23.4539 38.5392L14.0626 32.2655C13.4138 31.832 13.022 31.1508 13.0009 30.4198C12.9798 29.6887 13.3319 28.9898 13.9549 28.5262L23.3462 21.5368Z" fill="#DDE8FF"/>
<path fill-rule="evenodd" clip-rule="evenodd" d="M23.3462 11.5356C24.3078 10.8215 25.6922 10.8215 26.6538 11.5356L36.0451 17.5488C36.6681 18.0114 37.0202 18.7088 36.9991 19.4383C36.978 20.1678 36.5862 20.8475 35.9374 21.28L26.5461 27.5402C25.6264 28.1533 24.3736 28.1533 23.4539 27.5402L14.0626 21.28C13.4138 20.8475 13.022 20.1678 13.0009 19.4383C12.9798 18.7088 13.3319 18.0114 13.9549 17.5488L23.3462 11.5356Z" fill="white"/>
</svg>
